Coordinates
version=1
nRows=11
nColumns=36
inDegrees=yes

Units are S.I. units (second, meters, Newtons, ...)
If the header above contains a line with 'inDegrees', this indicates whether rotational values are in degrees (yes) or radians (no).

endheader
time	pelvis_tilt	pelvis_list	pelvis_rotation	pelvis_tx	pelvis_ty	pelvis_tz	hip_flexion_r	hip_adduction_r	hip_rotation_r	knee_angle_r	knee_angle_r_beta	ankle_angle_r	subtalar_angle_r	mtp_angle_r	hip_flexion_l	hip_adduction_l	hip_rotation_l	knee_angle_l	knee_angle_l_beta	ankle_angle_l	subtalar_angle_l	mtp_angle_l	lumbar_extension	lumbar_bending	lumbar_rotation	arm_flex_r	arm_add_r	arm_rot_r	elbow_flex_r	pro_sup_r	arm_flex_l	arm_add_l	arm_rot_l	elbow_flex_l	pro_sup_l
      0.54000000	     -5.95300003	      5.34949718	      3.21436081	     -0.70262460	      1.37941361	     -0.56318439	      3.74007859	     -3.51923004	     -3.60287591	     18.83283010	      0.32869489	    -29.87737266	     -4.12629120	     -5.50598729	     33.82495781	      1.81294151	     -6.44127012	     44.51952447	      0.77701228	    -22.14179531	    -18.62883172	     -5.50598729	    -16.31549692	     -8.33739991	     -5.91615405	     15.08623496	    -14.61096927	    -12.02430181	    120.28733481	    104.43257754	    -11.14194131	    -18.87952245	     -4.02494516	    107.16364583	    110.49409878
      0.55000000	     -5.98760414	      5.08387711	      2.95549996	     -0.69313348	      1.38275939	     -0.56362462	      5.13322744	     -3.62698565	     -3.29239351	     19.03702246	      0.33225872	    -29.84661861	     -3.93500898	     -5.52654211	     33.24632930	      1.42005047	     -6.72601954	     41.92039741	      0.73164896	    -22.29256290	    -17.94334305	     -5.52654211	    -16.52383140	     -8.07255895	     -5.93733925	     13.43738982	    -14.59188624	    -13.03688306	    120.29953279	    104.39749957	    -11.98883613	    -18.28625648	     -4.67276830	    107.37033777	    110.46653526
      0.56000000	     -6.06197133	      4.83330385	      2.68421665	     -0.68365450	      1.38504436	     -0.56418394	      6.53876996	     -3.77105195	     -3.10047387	     18.96927687	      0.33107634	    -29.44364756	     -3.65373530	     -5.54694685	     32.67557442	      1.04323762	     -7.07444286	     39.31636550	      0.68620003	    -22.52922747	    -17.16851562	     -5.54694685	    -16.76905928	     -7.74863763	     -5.91112293	     11.74667759	    -14.61806335	    -14.14292049	    120.39597714	    104.34001603	    -12.80404965	    -17.78526398	     -5.28746756	    107.70013829	    110.44395864
      0.57000000	     -6.18174865	      4.54189428	      2.43600201	     -0.67415530	      1.38617986	     -0.56471960	      7.96341176	     -3.85630204	     -3.03208932	     18.65513123	      0.32559346	    -28.75341705	     -3.37297371	     -5.56568047	     32.13501198	      0.64368062	     -7.39764038	     36.73378356	      0.64112547	    -22.85141401	    -16.38708587	     -5.56568047	    -16.95389343	     -7.37011818	     -5.87006680	     10.00703697	    -14.74334718	    -15.21414352	    120.47893180	    104.26817083	    -13.62042623	    -17.38076216	     -5.89628854	    108.15485096	    110.43546304
      0.58000000	     -6.32478004	      4.29365134	      2.18326857	     -0.66448232	      1.38620382	     -0.56513233	      9.37220175	     -3.96510771	     -3.02988954	     18.15810253	      0.31691868	    -27.90831059	     -3.06876689	     -5.58528147	     31.58199148	      0.26580758	     -7.79407504	     34.14688149	      0.59597551	    -23.38786763	    -15.52863289	     -5.58528147	    -17.08020425	     -7.05080451	     -5.75543687	      8.14468789	    -14.97570072	    -16.25398775	    120.59879958	    104.18688854	    -14.45798398	    -17.02822696	     -6.56780607	    108.75894772	    110.45437321
      0.59000000	     -6.44503219	      4.07617868	      1.89772980	     -0.65466853	      1.38516855	     -0.56545659	     10.72706562	     -4.09424289	     -3.11662778	     17.52125181	      0.30580353	    -27.00453343	     -2.66612092	     -5.61430365	     30.96739817	     -0.12067959	     -8.32902187	     31.55656625	      0.55076598	    -24.28121739	    -14.67300784	     -5.61430365	    -17.20208212	     -6.75406944	     -5.57516448	      6.19977643	    -15.27871788	    -17.33228080	    120.83979928	    104.07217564	    -15.28399372	    -16.79190110	     -7.18823670	    109.46532703	    110.50236639
      0.60000000	     -6.65354042	      3.84448879	      1.67725800	     -0.64475022	      1.38293507	     -0.56590464	     12.06769856	     -4.19743300	     -3.23970147	     16.62437047	      0.29015000	    -26.45461291	     -2.52354148	     -5.64025224	     30.47857948	     -0.45579320	     -8.79198741	     29.06492767	      0.50727868	    -25.32092646	    -13.91221925	     -5.64025224	    -17.21831915	     -6.44878185	     -5.44543770	      4.15376119	    -15.73434072	    -18.32835139	    121.08000542	    103.95713299	    -16.16049899	    -16.56247576	     -7.95482195	    110.31281609	    110.52806972
      0.61000000	     -6.88578175	      3.61186750	      1.44572182	     -0.63472654	      1.37959041	     -0.56631327	     13.39508856	     -4.28062659	     -3.37121066	     15.62893880	      0.27277644	    -26.17394039	     -2.57894226	     -5.66188238	     30.00612940	     -0.77510354	     -9.26307297	     26.62544330	      0.46470165	    -26.49264239	    -12.97463387	     -5.66188238	    -17.17098561	     -6.15831569	     -5.30132969	      2.05306729	    -16.27990069	    -19.29408035	    121.39332147	    103.85818159	    -17.15360800	    -16.40779125	     -8.87529578	    111.36717011	    110.55052673
      0.62000000	     -7.12000001	      3.41815875	      1.21047678	     -0.62463148	      1.37515743	     -0.56670443	     14.70127092	     -4.37068144	     -3.47890901	     14.60976136	      0.25498844	    -26.09412247	     -2.75883311	     -5.68215817	     29.53668695	     -1.04672839	     -9.72145323	     24.26931727	      0.42357949	    -27.58795512	    -11.84841896	     -5.68215817	    -17.11813616	     -5.91953410	     -5.19549390	     -0.15972163	    -16.92361443	    -20.10258273	    121.84462015	    103.74530129	    -18.23997159	    -16.33474201	     -9.87061959	    112.67527326	    110.53947769
      0.63000000	     -7.29895855	      3.28029757	      0.96580510	     -0.61445417	      1.36974377	     -0.56698899	     15.92311419	     -4.48314681	     -3.57666525	     13.61750347	      0.23767027	    -26.18129438	     -3.06640020	     -5.70334846	     29.00201995	     -1.26790984	    -10.14178190	     21.98357605	      0.38368578	    -28.54712096	    -10.70171323	     -5.70334846	    -17.12597816	     -5.74247415	     -5.11912027	     -2.40741954	    -17.57948403	    -20.87834431	    122.46507853	    103.63518256	    -19.46333764	    -16.42278290	    -10.94584003	    114.17622397	    110.56319371
      0.64000000	     -7.43980013	      3.15333013	      0.74910537	     -0.60417228	      1.36335330	     -0.56719248	     17.04976801	     -4.58160409	     -3.67936449	     12.64109785	      0.22062878	    -26.35131556	     -3.41564708	     -5.72705280	     28.45111245	     -1.45834961	    -10.50052699	     19.83701552	      0.34622123	    -29.22506421	     -9.72822929	     -5.72705280	    -17.15327324	     -5.58521953	     -5.06412850	     -4.66333740	    -18.23937110	    -21.67858031	    123.17481531	    103.52451020	    -20.78877674	    -16.65088757	    -12.08568557	    115.79633593	    110.61350896
